<svg width="20" height="20" viewBox="0 0 20 20" fill="none" xmlns="http://www.w3.org/2000/svg">
<path d="M8.07087 11.75L19.0709 0.75M8.07087 11.75L11.5709 18.75C11.6147 18.8457 11.6852 18.9269 11.7738 18.9838C11.8625 19.0406 11.9656 19.0709 12.0709 19.0709C12.1762 19.0709 12.2793 19.0406 12.3679 18.9838C12.4566 18.9269 12.527 18.8457 12.5709 18.75L19.0709 0.75M8.07087 11.75L1.07087 8.25C0.97513 8.20613 0.893998 8.13569 0.837117 8.04705C0.780237 7.95842 0.75 7.85532 0.75 7.75C0.75 7.64468 0.780237 7.54158 0.837117 7.45295C0.893998 7.36431 0.97513 7.29387 1.07087 7.25L19.0709 0.75" stroke="#48302D" stroke-width="1.5" stroke-linecap="round" stroke-linejoin="round"/>
</svg>
