<svg width="17" height="17" viewBox="0 0 17 17" fill="none" xmlns="http://www.w3.org/2000/svg">
<path d="M10.7708 6.1875L10.0925 6.07475C10.0761 6.17323 10.0814 6.2741 10.108 6.37034C10.1345 6.46658 10.1817 6.55589 10.2463 6.63204C10.3108 6.7082 10.3912 6.76938 10.4818 6.81134C10.5724 6.8533 10.671 6.87502 10.7708 6.875V6.1875ZM0.6875 6.1875V5.5C0.505164 5.5 0.330295 5.57243 0.201364 5.70137C0.0724327 5.8303 0 6.00517 0 6.1875H0.6875ZM2.52083 16.0417H12.9342V14.6667H2.52083V16.0417ZM14.0342 5.5H10.7708V6.875H14.0342V5.5ZM11.4492 6.30025L12.188 1.86817L10.8313 1.64175L10.0925 6.07475L11.4492 6.30025ZM10.6058 1.07288e-06H10.4097V1.375H10.6049L10.6058 1.07288e-06ZM7.54875 1.53083L5.24333 4.98942L6.38733 5.75208L8.69275 2.2935L7.54875 1.53083ZM4.29 5.5H0.6875V6.875H4.29V5.5ZM0 6.1875V13.5208H1.375V6.1875H0ZM15.4064 14.0158L16.5064 8.51583L15.1589 8.24542L14.0589 13.7454L15.4064 14.0158ZM5.24333 4.98942C5.13874 5.14643 4.997 5.27427 4.83069 5.36334C4.66438 5.45241 4.47866 5.49904 4.29 5.49908V6.87408C5.13333 6.87408 5.91983 6.45333 6.38733 5.75208L5.24333 4.98942ZM12.188 1.86817C12.2262 1.63842 12.2139 1.4022 12.152 1.17768C12.0901 0.953165 11.98 0.744823 11.8294 0.567134C11.6789 0.389445 11.4914 0.246671 11.2801 0.148733C11.0688 0.0507946 10.8387 4.17421e-05 10.6058 1.07288e-06L10.6049 1.375C10.6381 1.37508 10.6719 1.38239 10.702 1.39641C10.7321 1.41044 10.7588 1.43084 10.7803 1.45622C10.8017 1.48159 10.8174 1.51133 10.8262 1.54337C10.835 1.5754 10.8368 1.60897 10.8313 1.64175L12.188 1.86817ZM14.0342 6.87408C14.7583 6.87408 15.2992 7.53592 15.158 8.2445L16.5064 8.51492C16.5794 8.14925 16.5703 7.77104 16.4798 7.40931C16.3894 7.04758 16.2198 6.71042 15.9833 6.42213C15.7469 6.13384 15.4494 5.90159 15.1123 5.74214C14.7753 5.58268 14.407 5.49998 14.0342 5.5V6.87408ZM12.9342 16.0417C13.5169 16.0418 14.0817 15.8391 14.5324 15.4697C14.9831 15.1004 15.292 14.5863 15.4064 14.0149L14.0589 13.7445C14.007 14.0045 13.8665 14.2384 13.6614 14.4064C13.4563 14.5743 13.1993 14.6669 12.9342 14.6667V16.0417ZM10.4097 1.07288e-06C9.84378 4.21837e-05 9.28665 0.138872 8.78773 0.405919C8.28882 0.672967 7.86355 1.05906 7.54967 1.52992L8.69275 2.2935C8.88116 2.01085 9.13647 1.7782 9.43599 1.61797C9.73552 1.45773 10.07 1.37487 10.4097 1.375V1.07288e-06ZM2.52083 14.6667C1.88833 14.6667 1.375 14.1533 1.375 13.5208H0C0 14.1894 0.265587 14.8306 0.738335 15.3033C1.21108 15.7761 1.85227 16.0417 2.52083 16.0417V14.6667Z" fill="#48302D"/>
</svg>
