<svg width="17" height="17" viewBox="0 0 17 17" fill="none" xmlns="http://www.w3.org/2000/svg">
<path d="M5.78434 9.85419L6.46268 9.96694C6.47905 9.86845 6.47378 9.76758 6.44723 9.67134C6.42067 9.5751 6.37348 9.4858 6.30892 9.40964C6.24437 9.33349 6.164 9.2723 6.07341 9.23035C5.98282 9.18839 5.88418 9.16667 5.78434 9.16669V9.85419ZM15.8677 9.85419V10.5417C16.05 10.5417 16.2249 10.4693 16.3538 10.3403C16.4827 10.2114 16.5552 10.0365 16.5552 9.85419H15.8677ZM14.0343 1.90735e-05H3.62101V1.37502H14.0343V1.90735e-05ZM2.52101 10.5417H5.78434V9.16669H2.52101V10.5417ZM5.10601 9.74144L4.36718 14.1735L5.72384 14.3999L6.46268 9.96694L5.10601 9.74144ZM5.94934 16.0417H6.14551V14.6667H5.95026L5.94934 16.0417ZM9.00643 14.5109L11.3118 11.0523L10.1678 10.2896L7.86243 13.7482L9.00643 14.5109ZM12.2652 10.5417H15.8677V9.16669H12.2652V10.5417ZM16.5552 9.85419V2.52085H15.1802V9.85419H16.5552ZM1.14876 2.02585L0.0487595 7.52585L1.39626 7.79627L2.49626 2.29627L1.14876 2.02585ZM11.3118 11.0523C11.4164 10.8953 11.5582 10.7674 11.7245 10.6783C11.8908 10.5893 12.0765 10.5427 12.2652 10.5426V9.1676C11.4218 9.1676 10.6353 9.58835 10.1678 10.2896L11.3118 11.0523ZM4.36718 14.1735C4.32898 14.4033 4.34127 14.6395 4.40319 14.864C4.46511 15.0885 4.57517 15.2969 4.72573 15.4746C4.87629 15.6522 5.06374 15.795 5.27504 15.893C5.48635 15.9909 5.71644 16.0416 5.94934 16.0417L5.95026 14.6667C5.91703 14.6666 5.8833 14.6593 5.85318 14.6453C5.82306 14.6312 5.79635 14.6108 5.7749 14.5855C5.75344 14.5601 5.73777 14.5304 5.72895 14.4983C5.72014 14.4663 5.71839 14.4327 5.72384 14.3999L4.36718 14.1735ZM2.52101 9.1676C1.79684 9.1676 1.25601 8.50577 1.39718 7.79718L0.0487595 7.52677C-0.0241871 7.89243 -0.0151081 8.27064 0.075346 8.63237C0.1658 8.99411 0.335375 9.33127 0.571847 9.61956C0.80832 9.90785 1.1058 10.1401 1.44286 10.2995C1.77991 10.459 2.14814 10.5417 2.52101 10.5417V9.1676ZM3.62101 1.90735e-05C3.03828 -9.53674e-05 2.47351 0.2026 2.02277 0.571944C1.57204 0.941289 1.26319 1.45538 1.14876 2.02677L2.49626 2.29719C2.54822 2.03722 2.68872 1.80331 2.89381 1.63533C3.0989 1.46734 3.3559 1.37475 3.62101 1.37502V1.90735e-05ZM6.14551 16.0417C6.7114 16.0416 7.26853 15.9028 7.76744 15.6358C8.26636 15.3687 8.69163 14.9826 9.00551 14.5118L7.86243 13.7482C7.67401 14.0308 7.4187 14.2635 7.11918 14.4237C6.81966 14.584 6.4852 14.6668 6.14551 14.6667V16.0417ZM14.0343 1.37502C14.6668 1.37502 15.1802 1.88835 15.1802 2.52085H16.5552C16.5552 1.85229 16.2896 1.2111 15.8168 0.738354C15.3441 0.265606 14.7029 1.90735e-05 14.0343 1.90735e-05V1.37502Z" fill="#48302D"/>
</svg>
