<svg width="22" height="22" viewBox="0 0 22 22" fill="none" xmlns="http://www.w3.org/2000/svg">
<path d="M7.10798 18.4922C6.00234 18.0825 5.01843 17.397 4.24871 16.5001C3.479 15.6031 2.94874 14.5241 2.70776 13.3645L1.04768 5.51202C0.807673 4.42615 1.49771 3.36039 2.57776 3.12914L12.3482 1.0479L12.3782 1.03784C13.4483 0.826702 14.4983 1.52045 14.7183 2.58621L15.0684 4.26528L19.4186 5.20034H19.4486C20.4986 5.44164 21.1787 6.5074 20.9586 7.57316L19.2986 15.4356C19.107 16.3388 18.7402 17.1952 18.2194 17.9559C17.6985 18.7166 17.0337 19.3666 16.2629 19.869C15.4921 20.3713 14.6304 20.716 13.7271 20.8835C12.8238 21.0509 11.8965 21.0378 10.9982 20.8449C9.47461 20.5242 8.10365 19.6951 7.10798 18.4922ZM18.9985 7.16093L9.22808 5.06963L7.568 12.9321V12.9623C6.99797 15.6568 8.72805 18.3112 11.4182 18.8843C14.1083 19.4574 16.7684 17.728 17.3385 15.0234L18.9985 7.16093ZM14.9984 15.5261C14.6826 16.0641 14.2066 16.4885 13.6376 16.7393C13.0687 16.9902 12.4356 17.0547 11.8282 16.9237C11.2224 16.794 10.6721 16.4771 10.2543 16.0173C9.83649 15.5576 9.57209 14.9781 9.49809 14.3598L14.9984 15.5261ZM7.46799 4.13458L2.99778 5.09979L4.65786 12.9522L4.66786 12.9824C4.81787 13.6962 5.11788 14.3397 5.5279 14.8927C5.4279 14.1185 5.4479 13.3142 5.6179 12.5098L6.04792 10.499C5.5979 10.4185 5.20788 10.1672 4.99787 9.80522C5.05788 9.19191 5.5579 8.64897 6.24793 8.4881H6.49795L7.27798 4.6574C7.31799 4.46637 7.37799 4.29545 7.46799 4.13458ZM14.0283 11.2329C14.3483 10.7001 15.0284 10.4185 15.7184 10.5693C16.4084 10.7101 16.9084 11.243 16.9985 11.8664C16.6684 12.3892 15.9984 12.6707 15.2984 12.5098C14.6083 12.3791 14.1083 11.8462 14.0283 11.2329ZM9.14807 10.1873C9.46809 9.65441 10.1381 9.37288 10.8282 9.5237C11.4982 9.66446 12.0282 10.2074 12.1082 10.8207C11.7782 11.3435 11.1082 11.6351 10.4181 11.5044C9.7281 11.3335 9.22808 10.8006 9.14807 10.1873ZM10.9682 3.39056L12.9283 3.81284L12.7682 3.00849L10.9682 3.39056Z" fill="#48302D"/>
</svg>
