<svg width="168" height="58" viewBox="0 0 168 58" fill="none" xmlns="http://www.w3.org/2000/svg">
<path d="M20.128 4.08C23.256 4.08 25.84 4.3067 27.88 4.76C29.9654 5.2133 31.7107 5.916 33.116 6.868C34.7027 8.0013 35.9494 9.452 36.856 11.22C37.7627 12.9427 38.216 14.8013 38.216 16.796C38.216 19.7427 37.2414 22.236 35.292 24.276C33.3427 26.316 30.5774 27.6987 26.996 28.424V28.696C31.076 29.1493 34.34 30.6453 36.788 33.184C39.2814 35.7227 40.528 38.8507 40.528 42.568C40.528 44.6533 40.12 46.6027 39.304 48.416C38.5334 50.2293 37.4227 51.7253 35.972 52.904C34.3854 54.1733 32.4587 55.08 30.192 55.624C27.9254 56.168 24.956 56.44 21.284 56.44H0V54.876L5.78 53.584V6.936L0 5.644V4.08H20.128ZM17.136 27.268C19.448 27.268 21.352 27.2 22.848 27.064C25.3414 26.792 27.2454 25.7493 28.56 23.936C29.92 22.1227 30.6 19.6747 30.6 16.592C30.6 15.0053 30.396 13.668 29.988 12.58C29.6254 11.4467 28.9907 10.4267 28.084 9.52C27.0867 8.5227 25.908 7.82 24.548 7.412C23.188 7.004 21.2614 6.8 18.768 6.8H12.92V27.268H17.136ZM12.92 49.776C12.92 51.3627 13.328 52.4507 14.144 53.04C15.0054 53.584 16.592 53.856 18.904 53.856C23.6187 53.856 27.0867 52.904 29.308 51C31.5294 49.0507 32.64 46.036 32.64 41.956C32.64 37.876 31.5067 34.8613 29.24 32.912C26.9734 30.9627 23.46 29.988 18.7 29.988H12.92V49.776ZM64.4109 19.72C67.7656 19.72 70.8029 20.536 73.5229 22.168C76.2882 23.7547 78.4416 25.976 79.9829 28.832C81.5242 31.688 82.2949 34.884 82.2949 38.42C82.2949 41.956 81.5242 45.152 79.9829 48.008C78.4416 50.864 76.2882 53.108 73.5229 54.74C70.8029 56.3267 67.7656 57.12 64.4109 57.12C61.0562 57.12 57.9962 56.3267 55.2309 54.74C52.5109 53.108 50.3802 50.864 48.8389 48.008C47.2976 45.152 46.5269 41.956 46.5269 38.42C46.5269 34.884 47.2976 31.688 48.8389 28.832C50.3802 25.976 52.5109 23.7547 55.2309 22.168C57.9962 20.536 61.0562 19.72 64.4109 19.72ZM53.7349 38.42C53.7349 43.316 54.6642 47.1467 56.5229 49.912C58.4269 52.6773 61.0336 54.06 64.3429 54.06C67.6976 54.06 70.3269 52.6773 72.2309 49.912C74.1349 47.1013 75.0869 43.248 75.0869 38.352C75.0869 33.5013 74.1349 29.6933 72.2309 26.928C70.3722 24.1627 67.7656 22.78 64.4109 22.78C61.0562 22.78 58.4269 24.1627 56.5229 26.928C54.6642 29.6933 53.7349 33.524 53.7349 38.42ZM105.566 19.72C108.92 19.72 111.958 20.536 114.678 22.168C117.443 23.7547 119.596 25.976 121.138 28.832C122.679 31.688 123.45 34.884 123.45 38.42C123.45 41.956 122.679 45.152 121.138 48.008C119.596 50.864 117.443 53.108 114.678 54.74C111.958 56.3267 108.92 57.12 105.566 57.12C102.211 57.12 99.1507 56.3267 96.3857 54.74C93.6652 53.108 91.5346 50.864 89.9932 48.008C88.4519 45.152 87.6812 41.956 87.6812 38.42C87.6812 34.884 88.4519 31.688 89.9932 28.832C91.5346 25.976 93.6652 23.7547 96.3857 22.168C99.1507 20.536 102.211 19.72 105.566 19.72ZM94.8892 38.42C94.8892 43.316 95.8186 47.1467 97.6777 49.912C99.5817 52.6773 102.188 54.06 105.498 54.06C108.852 54.06 111.482 52.6773 113.386 49.912C115.29 47.1013 116.242 43.248 116.242 38.352C116.242 33.5013 115.29 29.6933 113.386 26.928C111.527 24.1627 108.92 22.78 105.566 22.78C102.211 22.78 99.5817 24.1627 97.6777 26.928C95.8186 29.6933 94.8892 33.524 94.8892 38.42ZM167.392 55.08V56.44H155.492L141.416 39.304L138.764 42.364V54.06L143.864 55.08V56.44H127.34V55.08L132.508 54.06V6.052L127.544 4.216V3.332L138.084 0H138.764V38.692L150.12 25.84C151.072 24.752 151.548 23.936 151.548 23.392C151.548 22.984 151.208 22.6667 150.528 22.44C149.848 22.2133 148.511 21.9867 146.516 21.76V20.4H161.748V21.76C158.983 22.2587 157.124 22.7347 156.172 23.188C155.22 23.6413 154.223 24.4573 153.18 25.636L145.496 34.612L161.68 54.06L167.392 55.08Z" fill="#48302D"/>
</svg>
