<svg width="161" height="62" viewBox="0 0 161 62" fill="none" xmlns="http://www.w3.org/2000/svg">
<path d="M14.34 0C16.14 0 17.76 0.300002 19.2 0.900002C20.68 1.5 22.08 2.44 23.4 3.72L25.32 0.600006H26.52L27.06 13.8H25.5C24.54 10 23.16 7.18 21.36 5.34C19.6 3.5 17.36 2.58 14.64 2.58C12.36 2.58 10.56 3.2 9.24001 4.44C7.92001 5.64 7.26 7.30001 7.26 9.42001C7.26 11.14 7.7 12.64 8.58 13.92C9.46 15.2 10.54 16.28 11.82 17.16C13.1 18 14.86 19.02 17.1 20.22C19.58 21.54 21.58 22.72 23.1 23.76C24.62 24.8 25.9 26.16 26.94 27.84C28.02 29.48 28.56 31.46 28.56 33.78C28.56 36.3 27.92 38.6 26.64 40.68C25.4 42.72 23.68 44.34 21.48 45.54C19.32 46.74 16.92 47.34 14.28 47.34C12.64 47.34 11.06 47.1 9.54 46.62C8.02 46.14 6.4 45.38 4.68 44.34L2.28001 46.8H1.08L0 31.44L1.5 31.08C2.7 35.92 4.28001 39.42 6.24001 41.58C8.20001 43.7 10.82 44.76 14.1 44.76C16.86 44.76 19.04 44.1 20.64 42.78C22.24 41.46 23.04 39.64 23.04 37.32C23.04 35.56 22.58 34.04 21.66 32.76C20.74 31.44 19.6 30.34 18.24 29.46C16.88 28.54 15.04 27.48 12.72 26.28C10.12 24.92 8.04 23.7 6.48 22.62C4.96 21.54 3.66 20.18 2.58 18.54C1.5 16.9 0.959999 14.94 0.959999 12.66C0.959999 10.26 1.54 8.1 2.7 6.18C3.86 4.26 5.46 2.76 7.5 1.68C9.54 0.56 11.82 0 14.34 0ZM48.705 60.66V61.8H32.565V60.66L37.065 59.76V19.74L32.685 18.12V17.28L41.925 14.4H42.585V19.68H42.825C43.985 17.92 45.425 16.6 47.145 15.72C48.905 14.84 50.725 14.4 52.605 14.4C55.085 14.4 57.285 15.1 59.205 16.5C61.125 17.86 62.605 19.76 63.645 22.2C64.725 24.64 65.265 27.38 65.265 30.42C65.265 33.74 64.565 36.68 63.165 39.24C61.765 41.8 59.805 43.8 57.285 45.24C54.765 46.68 51.865 47.4 48.585 47.4C46.505 47.4 44.565 47.1 42.765 46.5V59.76L48.705 60.66ZM48.825 45.6C50.825 45.6 52.605 45 54.165 43.8C55.725 42.6 56.925 40.92 57.765 38.76C58.605 36.6 59.025 34.14 59.025 31.38C59.025 27.34 58.185 24.16 56.505 21.84C54.825 19.48 52.525 18.3 49.605 18.3C48.365 18.3 47.085 18.64 45.765 19.32C44.445 20 43.545 20.82 43.065 21.78V39.72C43.065 41.44 43.605 42.86 44.685 43.98C45.805 45.06 47.185 45.6 48.825 45.6ZM77.579 47.4C75.459 47.4 73.719 46.72 72.359 45.36C71.039 44 70.379 42.24 70.379 40.08C70.379 38.32 70.899 36.82 71.939 35.58C73.019 34.3 74.739 33.18 77.099 32.22C79.499 31.26 82.739 30.34 86.819 29.46V23.58C86.819 21.06 86.459 19.28 85.739 18.24C85.019 17.2 83.779 16.68 82.019 16.68C80.299 16.68 78.939 17.1 77.939 17.94C76.939 18.74 76.439 19.84 76.439 21.24C76.439 21.6 76.459 21.96 76.499 22.32C76.539 22.64 76.559 22.98 76.559 23.34C76.559 24.34 76.259 25.18 75.659 25.86C75.099 26.5 74.359 26.82 73.439 26.82C72.639 26.82 71.979 26.56 71.459 26.04C70.939 25.52 70.679 24.82 70.679 23.94C70.679 22.62 71.259 21.26 72.419 19.86C73.619 18.46 75.199 17.26 77.159 16.26C79.559 15.02 82.099 14.4 84.779 14.4C86.499 14.4 87.959 14.68 89.159 15.24C90.359 15.8 91.219 16.58 91.739 17.58C92.059 18.26 92.259 19.1 92.339 20.1C92.459 21.1 92.519 22.88 92.519 25.44V39.18C92.519 41.14 92.659 42.48 92.939 43.2C93.259 43.88 93.859 44.22 94.739 44.22C95.299 44.22 95.799 44.1 96.239 43.86C96.679 43.58 97.159 43.12 97.679 42.48L98.699 43.38C97.779 44.82 96.819 45.86 95.819 46.5C94.859 47.1 93.739 47.4 92.459 47.4C90.859 47.4 89.619 46.96 88.739 46.08C87.859 45.2 87.319 43.84 87.119 42L86.939 41.88C85.779 43.6 84.359 44.96 82.679 45.96C80.999 46.92 79.299 47.4 77.579 47.4ZM80.219 43.86C81.499 43.86 82.719 43.52 83.879 42.84C85.039 42.12 86.019 41.12 86.819 39.84V31.2C83.939 31.76 81.699 32.36 80.099 33C78.539 33.64 77.419 34.42 76.739 35.34C76.059 36.26 75.719 37.42 75.719 38.82C75.719 40.42 76.099 41.66 76.859 42.54C77.659 43.42 78.779 43.86 80.219 43.86ZM115.702 47.4C112.862 47.4 110.322 46.72 108.082 45.36C105.882 44 104.162 42.1 102.922 39.66C101.682 37.22 101.062 34.44 101.062 31.32C101.062 28.04 101.742 25.12 103.102 22.56C104.462 20 106.342 18 108.742 16.56C111.182 15.12 113.942 14.4 117.022 14.4C119.022 14.4 120.842 14.72 122.482 15.36C124.122 16 125.422 16.86 126.382 17.94C127.342 19.02 127.822 20.2 127.822 21.48C127.822 22.52 127.562 23.36 127.042 24C126.562 24.6 125.902 24.9 125.062 24.9C122.982 24.9 121.802 23.64 121.522 21.12C121.282 19.2 120.842 17.92 120.202 17.28C119.602 16.64 118.602 16.32 117.202 16.32C114.042 16.32 111.582 17.56 109.822 20.04C108.062 22.52 107.182 25.88 107.182 30.12C107.182 34.2 108.082 37.38 109.882 39.66C111.682 41.9 114.222 43.02 117.502 43.02C119.342 43.02 121.042 42.66 122.602 41.94C124.202 41.18 125.522 40.08 126.562 38.64L127.222 37.74L128.362 38.34L128.062 39.12C127.062 41.76 125.482 43.8 123.322 45.24C121.162 46.68 118.622 47.4 115.702 47.4ZM138.632 28.32C138.592 28.6 138.572 29.06 138.572 29.7C138.572 34.1 139.452 37.42 141.212 39.66C142.972 41.9 145.552 43.02 148.952 43.02C150.912 43.02 152.732 42.68 154.412 42C156.092 41.28 157.452 40.28 158.492 39L159.212 38.1L160.232 38.7L159.872 39.54C158.832 41.98 157.152 43.9 154.832 45.3C152.512 46.7 149.892 47.4 146.972 47.4C144.132 47.4 141.612 46.74 139.412 45.42C137.252 44.06 135.572 42.18 134.372 39.78C133.172 37.34 132.572 34.54 132.572 31.38C132.572 28.06 133.232 25.12 134.552 22.56C135.912 19.96 137.792 17.96 140.192 16.56C142.632 15.12 145.432 14.4 148.592 14.4C152.512 14.4 155.512 15.56 157.592 17.88C159.712 20.16 160.812 23.52 160.892 27.96L160.472 28.32H138.632ZM148.052 16.26C145.412 16.26 143.292 17.16 141.692 18.96C140.092 20.76 139.112 23.32 138.752 26.64L154.412 26.1C154.532 25.62 154.592 24.8 154.592 23.64C154.592 18.72 152.412 16.26 148.052 16.26Z" fill="#48302D"/>
</svg>
