<svg width="17" height="24" viewBox="0 0 17 24" fill="none" xmlns="http://www.w3.org/2000/svg">
<path d="M1 5C1 3.6 1 2.9 1.2725 2.365C1.51218 1.89462 1.89462 1.51218 2.365 1.2725C2.9 1 3.6 1 5 1H12C13.4 1 14.1 1 14.635 1.2725C15.1054 1.51218 15.4878 1.89462 15.7275 2.365C16 2.9 16 3.6 16 5V21.6313C16 22.2388 16 22.5425 15.8738 22.7088C15.8192 22.7811 15.7496 22.8406 15.6697 22.8834C15.5899 22.9261 15.5017 22.951 15.4112 22.9563C15.2025 22.9688 14.95 22.8 14.445 22.4638L8.5 18.5L2.555 22.4625C2.05 22.8 1.7975 22.9688 1.5875 22.9563C1.49729 22.9508 1.40935 22.9258 1.32972 22.8831C1.25009 22.8404 1.18067 22.7809 1.12625 22.7088C1 22.5425 1 22.2388 1 21.6313V5Z" fill="#48302D" stroke="#48302D" stroke-width="2" stroke-linecap="round" stroke-linejoin="round"/>
</svg>
