<svg width="19" height="19" viewBox="0 0 19 19" fill="none" xmlns="http://www.w3.org/2000/svg">
<path d="M6.79851 6.52017L8.85527 2.37817C8.91514 2.2583 9.00722 2.15748 9.12118 2.08701C9.23514 2.01654 9.36648 1.97922 9.50047 1.97922C9.63446 1.97922 9.7658 2.01654 9.87977 2.08701C9.99373 2.15748 10.0858 2.2583 10.1457 2.37817L12.2024 6.52017L16.8004 7.18834C16.9331 7.20673 17.0578 7.26204 17.1605 7.34795C17.2632 7.43386 17.3397 7.54691 17.3812 7.6742C17.4228 7.8015 17.4277 7.9379 17.3954 8.06784C17.3631 8.19778 17.2949 8.31603 17.1986 8.40909L13.8721 11.6312L14.6574 16.1833C14.7579 16.7675 14.1404 17.2124 13.6124 16.9369L9.50047 14.7868L5.38776 16.9369C4.86051 17.2132 4.24301 16.7675 4.34356 16.1825L5.12889 11.6304L1.80231 8.4083C1.7065 8.31518 1.63875 8.19705 1.60674 8.06734C1.57473 7.93763 1.57975 7.80154 1.62123 7.67454C1.66271 7.54754 1.73899 7.43472 1.84139 7.34891C1.94379 7.26311 2.06822 7.20775 2.20052 7.18913L6.79851 6.52017Z" stroke="#48302D" stroke-width="1.5" stroke-linecap="round" stroke-linejoin="round"/>
</svg>
